<?xml version="1.0" encoding="UTF-8" standalone="no"?>
<!-- Created with Inkscape (http://www.inkscape.org/) -->

<svg
   width="128.89226mm"
   height="36.052719mm"
   viewBox="0 0 128.89225 36.052719"
   version="1.1"
   id="svg1"
   inkscape:version="1.4.2 (ebf0e940d0, 2025-05-08)"
   sodipodi:docname="dr_laube_logo3.svg"
   xmlns:inkscape="http://www.inkscape.org/namespaces/inkscape"
   xmlns:sodipodi="http://sodipodi.sourceforge.net/DTD/sodipodi-0.dtd"
   xmlns="http://www.w3.org/2000/svg"
   xmlns:svg="http://www.w3.org/2000/svg">
  <sodipodi:namedview
     id="namedview1"
     pagecolor="#505050"
     bordercolor="#ffffff"
     borderopacity="1"
     inkscape:showpageshadow="0"
     inkscape:pageopacity="0"
     inkscape:pagecheckerboard="1"
     inkscape:deskcolor="#505050"
     inkscape:document-units="mm"
     inkscape:zoom="1.1093238"
     inkscape:cx="142.87983"
     inkscape:cy="-3.6058001"
     inkscape:window-width="1920"
     inkscape:window-height="1163"
     inkscape:window-x="0"
     inkscape:window-y="0"
     inkscape:window-maximized="1"
     inkscape:current-layer="layer1"
     showgrid="false" />
  <defs
     id="defs1">
    <rect
       x="499.82144"
       y="644.78125"
       width="589.1167"
       height="42.908104"
       id="rect14" />
    <rect
       x="499.82144"
       y="644.78125"
       width="589.1167"
       height="42.908104"
       id="rect14-1" />
  </defs>
  <g
     inkscape:label="Layer 1"
     inkscape:groupmode="layer"
     id="layer1"
     transform="translate(-243.94583,-214.57708)">
    <ellipse
       style="fill:#f9f9f9;fill-opacity:0.548844;stroke-width:0.130683"
       id="path2-9"
       cx="-266.69202"
       cy="-230.16406"
       rx="16.79797"
       ry="15.586981"
       transform="scale(-1)" />
    <path
       style="font-weight:300;font-size:12.5927px;font-family:Oswald;-inkscape-font-specification:'Oswald Light';text-align:center;text-anchor:middle;fill:#0c0e0d;stroke-width:0.554553"
       d="m 281.55007,223.47639 h 2.48251 q 1.69262,0 2.39788,0.99762 0.70526,0.98153 0.70526,2.83195 v 5.18119 q 0,1.94698 -0.69115,2.99289 -0.67706,1.02979 -2.31325,1.02979 h -2.58125 z m 2.51073,12.11629 q 0.86041,0 1.28356,-0.40227 0.43726,-0.41835 0.56422,-1.09418 0.12693,-0.69189 0.12693,-1.80215 v -4.85938 q 0,-1.06198 -0.15515,-1.68953 -0.15516,-0.64362 -0.59242,-0.98153 -0.43726,-0.3379 -1.26946,-0.3379 h -1.39642 v 11.16694 z m 4.69701,-8.38324 h 1.04379 v 1.27115 q 0.36674,-0.69189 0.86042,-1.0298 0.50779,-0.33791 1.01556,-0.33791 0.0987,0 0.18337,0.016 v 1.25509 q -0.25389,-0.0966 -0.50778,-0.0966 -0.97326,0 -1.55157,1.07808 v 7.14426 h -1.04379 z m 4.17514,7.53043 h 1.0861 v 1.76996 h -1.0861 z m 6.99619,-10.31413 h -2.15811 v -0.94935 h 5.33175 v 0.94935 h -2.10166 v 12.08409 h -1.07198 z m 6.07932,12.22891 q -1.21305,0 -1.69262,-0.85281 -0.47958,-0.86889 -0.47958,-2.65497 v -2.57449 q 0,-1.78607 0.47958,-2.63887 0.47957,-0.8689 1.69262,-0.8689 1.22714,0 1.70673,0.8689 0.47957,0.8528 0.47957,2.63887 v 2.57449 q 0,1.78608 -0.47957,2.65497 -0.47959,0.85281 -1.70673,0.85281 z m 0,-0.88499 q 0.50778,0 0.74757,-0.30572 0.2539,-0.30572 0.32442,-0.82061 0.0706,-0.53099 0.0706,-1.43207 v -2.70325 q 0,-0.90107 -0.0706,-1.41598 -0.0706,-0.53099 -0.32442,-0.83672 -0.23979,-0.30572 -0.74757,-0.30572 -0.50779,0 -0.74757,0.30572 -0.2398,0.30573 -0.31032,0.83672 -0.0706,0.51491 -0.0706,1.41598 v 2.70325 q 0,0.90108 0.0706,1.43207 0.0706,0.51489 0.31032,0.82061 0.23978,0.30572 0.74757,0.30572 z m 3.61092,-8.56022 h 0.95915 v 0.94934 q 0.39494,-0.54708 0.88863,-0.82063 0.49368,-0.28963 1.02968,-0.28963 1.01558,0 1.29767,1.20679 0.40906,-0.59535 0.91684,-0.90107 0.52189,-0.30572 1.08609,-0.30572 0.60653,0 0.98736,0.49882 0.39495,0.49881 0.39495,1.62516 v 7.33733 h -0.95916 v -7.30517 q 0,-0.75624 -0.21158,-1.04588 -0.21157,-0.30572 -0.6065,-0.30572 -0.36675,0 -0.77579,0.25745 -0.40905,0.25744 -0.76169,0.70799 0.0282,0.22527 0.0282,0.354 v 7.33733 h -0.97326 v -7.30517 q 0,-0.77235 -0.21158,-1.06197 -0.21157,-0.28963 -0.6065,-0.28963 -0.36675,0 -0.76169,0.25745 -0.39496,0.25744 -0.76169,0.6919 v 7.70742 h -0.95915 z m 12.17276,-3.73305 h 1.07199 v 12.11629 h 3.24418 v 0.91715 h -4.31617 z m 6.58712,13.17826 q -0.73347,0 -1.18484,-0.59536 -0.45138,-0.59535 -0.45138,-1.48033 0,-0.91717 0.31033,-1.51252 0.32441,-0.59537 0.98736,-1.06199 0.66294,-0.46664 1.98882,-1.14244 v -0.65972 q 0,-0.8689 -0.0988,-1.35163 -0.0845,-0.48271 -0.31031,-0.69188 -0.21157,-0.20919 -0.60652,-0.20919 -1.14252,0 -1.14252,1.59298 v 0.32181 l -1.01558,-0.016 q 0.0141,-1.43208 0.53601,-2.10788 0.52189,-0.67581 1.67851,-0.67581 1.07199,0 1.52335,0.74018 0.46548,0.74016 0.46548,2.33315 v 4.52147 q 0,0.45054 0.0142,1.0298 0.0282,0.57926 0.0564,0.82062 h -0.91683 l -0.15515,-1.28725 q -0.18338,0.61146 -0.63474,1.02981 -0.43728,0.40226 -1.04378,0.40226 z m 0.32441,-0.99761 q 0.42315,0 0.76168,-0.32182 0.35263,-0.3379 0.5642,-0.78845 v -2.89633 q -0.95913,0.57928 -1.3964,0.90108 -0.42317,0.32182 -0.64884,0.72409 -0.21158,0.38618 -0.21158,1.01372 0,0.69189 0.2539,1.0298 0.268,0.33791 0.67704,0.33791 z m 5.06375,0.99761 q -0.62062,0 -0.94505,-0.51489 -0.32441,-0.51491 -0.32441,-1.46426 v -7.46606 h 1.04378 v 7.2086 q 0,0.708 0.18337,1.01371 0.19747,0.28966 0.59242,0.28966 0.35262,0 0.71936,-0.24137 0.38083,-0.25746 0.71936,-0.67582 v -7.59478 h 1.02968 v 9.30039 h -1.02968 v -1.02979 q -0.40906,0.54709 -0.91683,0.86889 -0.50779,0.30572 -1.072,0.30572 z m 7.10902,0 q -0.78989,0 -1.45284,-0.88499 v 0.74017 h -1.02966 v -13.03344 h 1.02966 v 4.50539 q 0.268,-0.40228 0.66295,-0.65972 0.39495,-0.25745 0.88862,-0.25745 1.072,0 1.46694,1.01371 0.39495,1.01371 0.39495,2.68715 v 1.96305 q 0,1.91481 -0.43726,2.92852 -0.43727,0.99761 -1.52336,0.99761 z m -0.18337,-0.93324 q 0.66294,0 0.87452,-0.69191 0.22569,-0.6919 0.22569,-2.26879 v -1.99524 q 0,-1.49645 -0.22569,-2.14006 -0.21158,-0.64363 -0.88863,-0.64363 -0.62063,0 -1.25536,0.72408 v 6.33973 q 0.53601,0.67582 1.26947,0.67582 z m 5.59976,0.93324 q -0.7899,0 -1.26947,-0.35399 -0.47957,-0.354 -0.70526,-1.14244 -0.22568,-0.78844 -0.22568,-2.14006 v -2.34924 q 0,-1.3677 0.22568,-2.14005 0.23979,-0.78845 0.71936,-1.12636 0.49369,-0.3379 1.26947,-0.3379 0.84633,0 1.29768,0.41836 0.46548,0.40225 0.63472,1.22289 0.18338,0.82062 0.18338,2.20442 v 0.83672 h -3.3006 v 1.62516 q 0,1.33553 0.26799,1.86652 0.268,0.53098 0.90273,0.53098 0.53599,0 0.8181,-0.38618 0.2962,-0.38616 0.2962,-1.39987 v -0.64363 h 1.00148 v 0.51489 q 0,1.35162 -0.4937,2.0757 -0.49367,0.72408 -1.62208,0.72408 z m 1.1143,-5.58346 v -0.77235 q 0,-0.83671 -0.0845,-1.31944 -0.0706,-0.48272 -0.31031,-0.75625 -0.23979,-0.27356 -0.71936,-0.27356 -0.43726,0 -0.69116,0.22529 -0.25389,0.20917 -0.36672,0.75625 -0.1129,0.531 -0.1129,1.51253 v 0.62753 z"
       id="text2-7"
       aria-label="Dr. Tom Laube" />
    <path
       style="fill:none;fill-opacity:1;stroke:#0c0e0d;stroke-width:0.529167;stroke-dasharray:none;stroke-opacity:1"
       d="m 243.94583,240.13238 h 4.95272 7.10131 c 0.30583,0 0.25698,-7.28037 0.25698,-8.46666 0,-14.09359 19.86654,-14.77168 19.86654,0 -0.15419,9.57999 -0.24647,8.46666 -0.0163,8.46666 h 75.66159 c 0.35007,0 1.22907,1.82438 1.29755,1.82438 0.30315,0 1.49566,-3.82437 1.66828,-3.82437 0.2234,0 0.67241,2.01195 1.00203,2.01195 0.50171,0 0.97234,-0.002 1.29672,-0.002 0.41605,0 0.78737,-8.12709 1.02806,-8.12709 0.22852,0 1.63902,18.58955 1.63902,18.58955 0,0 1.38774,-14.62171 1.59998,-14.6286 0.19035,-0.006 0.67721,4.15608 0.85856,4.15608 0.13877,0 0.65931,-1.83424 0.85852,-1.83414 0.14359,7e-5 1.44484,3.53169 1.64878,3.53169 0.20063,0 0.65286,-1.69755 0.93657,-1.69755 h 7.23535"
       id="path46-1"
       sodipodi:nodetypes="csssscsssssscsssssc" />
    <path
       style="fill:#000000;stroke:none;stroke-width:0.0534462"
       d="m 266.21057,230.34376 c -0.79313,-0.55907 -0.8498,-1.77708 -1.50576,-2.51197 -0.60481,-0.67757 -1.39011,-1.08645 -2.28892,-1.22209 -0.23394,-0.0353 -0.67564,-0.16079 -0.86891,0.0325 -0.33363,0.33367 0.15112,1.34199 0.32295,1.6706 0.43851,0.83864 1.15976,1.46231 2.04246,1.79445 0.43146,0.16236 0.92215,0.11524 1.33612,0.26876 0.30081,0.11157 0.70816,0.60917 0.87638,0.87634 0.14857,0.23597 0.0823,0.68691 0.0854,0.96204 0.009,0.78573 -0.0138,1.56694 0,2.35163 -0.45987,-0.42143 -0.55507,-1.01581 -0.82148,-1.54994 -0.37484,-0.75152 -0.90135,-1.40405 -1.63705,-1.82398 -0.56809,-0.32426 -1.17897,-0.40441 -1.81717,-0.46514 -0.20962,-0.02 -0.56404,-0.0669 -0.71595,0.11481 -0.14356,0.1717 -0.0474,0.43454 9.7e-4,0.62436 0.1376,0.53527 0.39013,1.06648 0.73958,1.4965 0.47852,0.58886 1.16979,1.06051 1.89907,1.275 0.87031,0.25597 1.93983,0.20752 2.31939,1.23697 0.1411,0.38268 0.0358,0.9877 0.0128,1.38961 -0.0515,0.8987 0.22711,1.9428 -0.35074,2.72555 -0.54541,0.7388 -1.18483,0.45526 -1.92481,0.65856 -0.17048,0.0468 -0.25711,0.23168 -0.15366,0.3874 0.13448,0.20244 0.53207,0.1304 0.73843,0.13007 0.80066,-9.7e-4 1.54663,-0.32957 1.92406,-1.06892 h 0.1069 c 0.30741,0.72604 1.0931,0.99089 1.81717,1.05985 0.22838,0.0217 1.02368,0.0904 0.87321,-0.35718 -0.0727,-0.21621 -0.37812,-0.16261 -0.55253,-0.17032 -0.47717,-0.0211 -0.9533,-0.10109 -1.33406,-0.40839 -0.90525,-0.73062 -0.59,-2.24507 -0.59,-3.2773 0,-0.3517 -0.1047,-0.90898 0.0549,-1.22926 0.48123,-0.96554 1.47752,-0.8051 2.35015,-1.11511 0.96485,-0.34278 1.72091,-1.04611 2.21321,-1.93133 0.181,-0.32546 0.48106,-0.8936 0.38789,-1.28036 -0.13078,-0.54291 -1.49526,-0.1889 -1.85285,-0.0864 -1.73384,0.49702 -2.37368,2.1517 -3.09988,3.6115 h -0.0534 v -2.35163 c 0,-0.27022 -0.0818,-0.70481 0.0549,-0.94678 0.55795,-0.9874 1.38488,-0.79328 2.2967,-1.16183 0.92207,-0.3727 1.66067,-1.10361 2.06775,-2.00675 0.13706,-0.30408 0.48726,-1.12959 0.2022,-1.41778 -0.20092,-0.20311 -0.74115,-0.0663 -0.98723,-0.014 -0.99295,0.21109 -1.78921,0.66473 -2.41045,1.48524 -0.53154,0.70204 -0.61549,1.6086 -1.22391,2.24474 0,-0.61379 -0.14649,-1.44206 0.0274,-2.03096 0.10121,-0.34266 0.4088,-0.63325 0.55896,-0.96203 0.42003,-0.91964 0.52175,-1.91344 0.21379,-2.88609 -0.13993,-0.44196 -0.4996,-1.59257 -1.01453,-1.71264 -0.2197,-0.0513 -0.38501,0.1685 -0.49401,0.32385 -0.29906,0.42624 -0.50256,0.90172 -0.67835,1.38879 -0.34397,0.95305 -0.23505,2.03599 0.19936,2.93953 0.16862,0.35074 0.50385,0.64555 0.61805,1.01548 0.18002,0.58316 -0.0433,1.31577 0.0348,1.92407 m 0.32068,-6.89457 c 0.53803,1.15235 0.99567,2.28892 0.38716,3.52746 -0.139,0.2829 -0.25619,0.59932 -0.54749,0.74824 -0.9137,-1.38544 -0.85539,-2.89761 0.0535,-4.2757 h 0.10689 m -1.38968,6.36011 c -1.65045,-0.0341 -2.68148,-1.19716 -3.15334,-2.67231 l 0.0535,-0.0535 c 1.61551,0.38907 2.6147,1.04928 3.09989,2.72576 m 5.7722,-2.72576 c -0.2501,1.69344 -1.68748,2.3758 -3.15333,2.72576 0.22945,-1.55365 1.65865,-2.60763 3.15333,-2.72576 m -5.71875,6.89456 c -1.52416,-0.0664 -3.23692,-1.12031 -3.47401,-2.72575 1.69471,0.21418 2.97583,0.98309 3.47401,2.72575 m 5.98598,-2.72575 c -0.24147,1.63501 -1.95969,2.60608 -3.47401,2.72575 0.29493,-1.03164 1.02569,-2.01018 2.03096,-2.4337 0.47161,-0.19868 0.9513,-0.20076 1.44305,-0.29205 z"
       id="path1-1-3-4"
       sodipodi:nodetypes="csssssssscsssscssssssssccssssssssssccssssssscssssssssccscccccccccccccccsc" />
  </g>
</svg>
