<?xml version="1.0" encoding="UTF-8" standalone="no"?>
<!-- Created with Inkscape (http://www.inkscape.org/) -->

<svg
   width="156.94083mm"
   height="36.15181mm"
   viewBox="0 0 156.94082 36.15181"
   version="1.1"
   id="svg1"
   inkscape:version="1.4.2 (ebf0e940d0, 2025-05-08)"
   sodipodi:docname="dr_laube_logo2.svg"
   xmlns:inkscape="http://www.inkscape.org/namespaces/inkscape"
   xmlns:sodipodi="http://sodipodi.sourceforge.net/DTD/sodipodi-0.dtd"
   xmlns="http://www.w3.org/2000/svg"
   xmlns:svg="http://www.w3.org/2000/svg">
  <sodipodi:namedview
     id="namedview1"
     pagecolor="#505050"
     bordercolor="#ffffff"
     borderopacity="1"
     inkscape:showpageshadow="0"
     inkscape:pageopacity="0"
     inkscape:pagecheckerboard="1"
     inkscape:deskcolor="#505050"
     inkscape:document-units="mm"
     inkscape:zoom="2.4517355"
     inkscape:cx="346.08137"
     inkscape:cy="8.7692982"
     inkscape:window-width="2560"
     inkscape:window-height="1364"
     inkscape:window-x="0"
     inkscape:window-y="0"
     inkscape:window-maximized="1"
     inkscape:current-layer="layer1" />
  <defs
     id="defs1">
    <rect
       x="499.82144"
       y="644.78125"
       width="589.1167"
       height="42.908104"
       id="rect14" />
    <rect
       x="499.82144"
       y="644.78125"
       width="589.1167"
       height="42.908104"
       id="rect14-1" />
  </defs>
  <g
     inkscape:label="Layer 1"
     inkscape:groupmode="layer"
     id="layer1"
     transform="translate(-206.90416,-214.57708)">
    <ellipse
       style="fill:#f9f9f9;fill-opacity:0.548844;stroke-width:0.130683"
       id="path2-9"
       cx="-287.85864"
       cy="-230.16406"
       rx="16.79797"
       ry="15.586981"
       transform="scale(-1)" />
    <path
       style="font-weight:300;font-size:12.5927px;font-family:Oswald;-inkscape-font-specification:'Oswald Light';text-align:center;text-anchor:middle;fill:#0c0e0d;stroke-width:0.463538"
       d="m 211.81151,223.08995 h 2.21632 q 1.51112,0 2.14076,0.78075 0.62963,0.76815 0.62963,2.21631 v 4.05485 q 0,1.52372 -0.61704,2.34225 -0.60445,0.80593 -2.0652,0.80593 h -2.30447 z m 2.24151,9.48231 q 0.76815,0 1.14593,-0.31482 0.39037,-0.32741 0.50371,-0.85631 0.11333,-0.54148 0.11333,-1.41038 v -3.80299 q 0,-0.83112 -0.13852,-1.32224 -0.13852,-0.50371 -0.52889,-0.76815 -0.39037,-0.26445 -1.13334,-0.26445 h -1.24668 v 8.73934 z m 4.19336,-6.5608 h 0.93186 v 0.99482 q 0.32741,-0.54148 0.76816,-0.80593 0.45334,-0.26445 0.90667,-0.26445 0.0881,0 0.16371,0.0126 v 0.98224 q -0.22667,-0.0756 -0.45334,-0.0756 -0.8689,0 -1.3852,0.84371 v 5.59116 h -0.93186 z m 3.72745,5.89338 h 0.96964 v 1.3852 h -0.96964 z m 6.24599,-8.07192 h -1.92669 v -0.74297 h 4.76004 v 0.74297 h -1.87631 v 9.45712 h -0.95704 z m 5.42745,9.57045 q -1.08297,0 -1.51113,-0.66741 -0.42815,-0.68001 -0.42815,-2.0778 v -2.01483 q 0,-1.39779 0.42815,-2.0652 0.42816,-0.68001 1.51113,-0.68001 1.09556,0 1.52372,0.68001 0.42815,0.66741 0.42815,2.0652 v 2.01483 q 0,1.39779 -0.42815,2.0778 -0.42816,0.66741 -1.52372,0.66741 z m 0,-0.6926 q 0.45334,0 0.66741,-0.23926 0.22667,-0.23926 0.28963,-0.64222 0.063,-0.41556 0.063,-1.12075 v -2.11558 q 0,-0.70519 -0.063,-1.10816 -0.063,-0.41555 -0.28963,-0.65482 -0.21407,-0.23926 -0.66741,-0.23926 -0.45334,0 -0.66741,0.23926 -0.21408,0.23927 -0.27704,0.65482 -0.063,0.40297 -0.063,1.10816 v 2.11558 q 0,0.70519 0.063,1.12075 0.063,0.40296 0.27704,0.64222 0.21407,0.23926 0.66741,0.23926 z m 3.22373,-6.69931 h 0.8563 v 0.74297 q 0.3526,-0.42815 0.79334,-0.64223 0.44075,-0.22667 0.91927,-0.22667 0.90668,0 1.15853,0.94445 0.36519,-0.46593 0.81853,-0.70519 0.46593,-0.23926 0.96963,-0.23926 0.54149,0 0.88149,0.39038 0.3526,0.39037 0.3526,1.27186 v 5.74227 h -0.85631 v -5.71709 q 0,-0.59185 -0.18889,-0.81852 -0.18889,-0.23926 -0.54148,-0.23926 -0.32741,0 -0.6926,0.20148 -0.36519,0.20148 -0.68001,0.55408 0.0252,0.1763 0.0252,0.27704 v 5.74227 h -0.8689 v -5.71709 q 0,-0.60445 -0.18889,-0.83111 -0.18889,-0.22667 -0.54148,-0.22667 -0.32741,0 -0.68001,0.20148 -0.3526,0.20148 -0.68001,0.54149 v 6.0319 h -0.8563 z m 10.8675,-2.92151 h 0.95704 v 9.48231 h 2.89632 v 0.71778 h -3.85336 z m 5.88079,10.31342 q -0.65482,0 -1.05779,-0.46593 -0.40297,-0.46593 -0.40297,-1.15852 0,-0.71779 0.27704,-1.18372 0.28963,-0.46593 0.88149,-0.83112 0.59186,-0.36519 1.77557,-0.89408 v -0.5163 q 0,-0.68001 -0.0882,-1.05779 -0.0755,-0.37778 -0.27704,-0.54148 -0.18889,-0.16371 -0.54148,-0.16371 -1.02001,0 -1.02001,1.24668 v 0.25185 l -0.90668,-0.0126 q 0.0126,-1.12075 0.47853,-1.64964 0.46593,-0.5289 1.49853,-0.5289 0.95704,0 1.36001,0.57927 0.41556,0.57926 0.41556,1.82594 v 3.53855 q 0,0.35259 0.0126,0.80593 0.0252,0.45334 0.0504,0.64223 h -0.81852 l -0.13852,-1.00742 q -0.16371,0.47853 -0.56667,0.80594 -0.39038,0.31481 -0.93186,0.31481 z m 0.28963,-0.78074 q 0.37778,0 0.68,-0.25186 0.31482,-0.26444 0.50371,-0.61704 v -2.26669 q -0.8563,0.45334 -1.24667,0.70519 -0.37779,0.25186 -0.57927,0.56668 -0.18889,0.30222 -0.18889,0.79334 0,0.54148 0.22667,0.80593 0.23926,0.26445 0.60445,0.26445 z m 4.52077,0.78074 q -0.55408,0 -0.84371,-0.40296 -0.28963,-0.40297 -0.28963,-1.14594 v -5.84301 h 0.93186 v 5.64153 q 0,0.55408 0.1637,0.79334 0.1763,0.22667 0.5289,0.22667 0.31481,0 0.64222,-0.18889 0.34001,-0.20149 0.64223,-0.5289 v -5.94375 h 0.91927 v 7.27858 h -0.91927 v -0.80593 q -0.36519,0.42815 -0.81852,0.68 -0.45334,0.23926 -0.95705,0.23926 z m 6.34673,0 q -0.70519,0 -1.29705,-0.6926 v 0.57927 h -0.91926 v -10.20009 h 0.91926 v 3.52596 q 0.23926,-0.31482 0.59186,-0.5163 0.3526,-0.20149 0.79334,-0.20149 0.95704,0 1.30964,0.79334 0.3526,0.79334 0.3526,2.10299 v 1.5363 q 0,1.49854 -0.39038,2.29188 -0.39037,0.78074 -1.36001,0.78074 z m -0.1637,-0.73037 q 0.59185,0 0.78074,-0.54149 0.20149,-0.54149 0.20149,-1.77557 v -1.56149 q 0,-1.17113 -0.20149,-1.67483 -0.18889,-0.50371 -0.79334,-0.50371 -0.55408,0 -1.12075,0.56667 v 4.96152 q 0.47853,0.5289 1.13335,0.5289 z m 4.9993,0.73037 q -0.70519,0 -1.13334,-0.27704 -0.42815,-0.27704 -0.62964,-0.89408 -0.20148,-0.61704 -0.20148,-1.67483 v -1.83853 q 0,-1.07038 0.20148,-1.67483 0.21408,-0.61704 0.64223,-0.88149 0.44075,-0.26445 1.13334,-0.26445 0.75557,0 1.15853,0.32741 0.41556,0.31482 0.56667,0.95705 0.16371,0.64223 0.16371,1.7252 v 0.65482 h -2.94669 v 1.27186 q 0,1.0452 0.23926,1.46076 0.23926,0.41555 0.80593,0.41555 0.47852,0 0.73038,-0.30222 0.26444,-0.30222 0.26444,-1.09556 v -0.50371 h 0.89409 v 0.40296 q 0,1.05779 -0.44075,1.62446 -0.44074,0.56667 -1.44816,0.56667 z m 0.99482,-4.36966 v -0.60445 q 0,-0.65482 -0.0755,-1.0326 -0.063,-0.37779 -0.27704,-0.59186 -0.21408,-0.21408 -0.64223,-0.21408 -0.39037,0 -0.61704,0.1763 -0.22667,0.16371 -0.32741,0.59186 -0.10074,0.41556 -0.10074,1.18371 v 0.49112 z"
       id="text2-7"
       transform="scale(0.98427754,1.0159736)"
       aria-label="Dr. Tom Laube" />
    <path
       style="fill:none;fill-opacity:1;stroke:#0c0e0d;stroke-width:0.529167;stroke-dasharray:none;stroke-opacity:1"
       d="m 206.90416,240.13238 h 63.16106 7.10131 c 0.30583,0 0.25698,-7.28037 0.25698,-8.46666 0,-14.09359 19.86654,-14.77168 19.86654,0 -0.15419,9.57999 -0.24647,8.46666 -0.0163,8.46666 h 43.91159 c 0.35007,0 1.22907,1.82438 1.29755,1.82438 0.30315,0 1.49566,-3.82437 1.66828,-3.82437 0.2234,0 0.67241,2.01195 1.00203,2.01195 0.50171,0 0.97234,-0.002 1.29672,-0.002 0.41605,0 0.78737,-8.12709 1.02806,-8.12709 0.22852,0 1.63902,18.58955 1.63902,18.58955 0,0 1.38774,-14.62171 1.59998,-14.6286 0.19035,-0.006 0.67721,4.15608 0.85856,4.15608 0.13877,0 0.65931,-1.83424 0.85852,-1.83414 0.14359,7e-5 1.44484,3.53169 1.64878,3.53169 0.20063,0 0.65286,-1.69755 0.93657,-1.69755 h 7.23535"
       id="path46-1"
       sodipodi:nodetypes="csssscsssssscsssssc" />
    <path
       style="fill:#000000;stroke:none;stroke-width:0.0534462"
       d="m 287.37725,230.34376 c -0.79313,-0.55907 -0.8498,-1.77708 -1.50576,-2.51197 -0.60481,-0.67757 -1.39011,-1.08645 -2.28892,-1.22209 -0.23394,-0.0353 -0.67564,-0.16079 -0.86891,0.0325 -0.33363,0.33367 0.15112,1.34199 0.32295,1.6706 0.43851,0.83864 1.15976,1.46231 2.04246,1.79445 0.43146,0.16236 0.92215,0.11524 1.33612,0.26876 0.30081,0.11157 0.70816,0.60917 0.87638,0.87634 0.14857,0.23597 0.0823,0.68691 0.0854,0.96204 0.009,0.78573 -0.0138,1.56694 0,2.35163 -0.45987,-0.42143 -0.55507,-1.01581 -0.82148,-1.54994 -0.37484,-0.75152 -0.90135,-1.40405 -1.63705,-1.82398 -0.56809,-0.32426 -1.17897,-0.40441 -1.81717,-0.46514 -0.20962,-0.02 -0.56404,-0.0669 -0.71595,0.11481 -0.14356,0.1717 -0.0474,0.43454 9.7e-4,0.62436 0.1376,0.53527 0.39013,1.06648 0.73958,1.4965 0.47852,0.58886 1.16979,1.06051 1.89907,1.275 0.87031,0.25597 1.93983,0.20752 2.31939,1.23697 0.1411,0.38268 0.0358,0.9877 0.0128,1.38961 -0.0515,0.8987 0.22711,1.9428 -0.35074,2.72555 -0.54541,0.7388 -1.18483,0.45526 -1.92481,0.65856 -0.17048,0.0468 -0.25711,0.23168 -0.15366,0.3874 0.13448,0.20244 0.53207,0.1304 0.73843,0.13007 0.80066,-9.7e-4 1.54663,-0.32957 1.92406,-1.06892 h 0.1069 c 0.30741,0.72604 1.0931,0.99089 1.81717,1.05985 0.22838,0.0217 1.02368,0.0904 0.87321,-0.35718 -0.0727,-0.21621 -0.37812,-0.16261 -0.55253,-0.17032 -0.47717,-0.0211 -0.9533,-0.10109 -1.33406,-0.40839 -0.90525,-0.73062 -0.59,-2.24507 -0.59,-3.2773 0,-0.3517 -0.1047,-0.90898 0.0549,-1.22926 0.48123,-0.96554 1.47752,-0.8051 2.35015,-1.11511 0.96485,-0.34278 1.72091,-1.04611 2.21321,-1.93133 0.181,-0.32546 0.48106,-0.8936 0.38789,-1.28036 -0.13078,-0.54291 -1.49526,-0.1889 -1.85285,-0.0864 -1.73384,0.49702 -2.37368,2.1517 -3.09988,3.6115 h -0.0534 v -2.35163 c 0,-0.27022 -0.0818,-0.70481 0.0549,-0.94678 0.55795,-0.9874 1.38488,-0.79328 2.2967,-1.16183 0.92207,-0.3727 1.66067,-1.10361 2.06775,-2.00675 0.13706,-0.30408 0.48726,-1.12959 0.2022,-1.41778 -0.20092,-0.20311 -0.74115,-0.0663 -0.98723,-0.014 -0.99295,0.21109 -1.78921,0.66473 -2.41045,1.48524 -0.53154,0.70204 -0.61549,1.6086 -1.22391,2.24474 0,-0.61379 -0.14649,-1.44206 0.0274,-2.03096 0.10121,-0.34266 0.4088,-0.63325 0.55896,-0.96203 0.42003,-0.91964 0.52175,-1.91344 0.21379,-2.88609 -0.13993,-0.44196 -0.4996,-1.59257 -1.01453,-1.71264 -0.2197,-0.0513 -0.38501,0.1685 -0.49401,0.32385 -0.29906,0.42624 -0.50256,0.90172 -0.67835,1.38879 -0.34397,0.95305 -0.23505,2.03599 0.19936,2.93953 0.16862,0.35074 0.50385,0.64555 0.61805,1.01548 0.18002,0.58316 -0.0433,1.31577 0.0348,1.92407 m 0.32068,-6.89457 c 0.53803,1.15235 0.99567,2.28892 0.38716,3.52746 -0.139,0.2829 -0.25619,0.59932 -0.54749,0.74824 -0.9137,-1.38544 -0.85539,-2.89761 0.0535,-4.2757 h 0.10689 m -1.38968,6.36011 c -1.65045,-0.0341 -2.68148,-1.19716 -3.15334,-2.67231 l 0.0535,-0.0535 c 1.61551,0.38907 2.6147,1.04928 3.09989,2.72576 m 5.7722,-2.72576 c -0.2501,1.69344 -1.68748,2.3758 -3.15333,2.72576 0.22945,-1.55365 1.65865,-2.60763 3.15333,-2.72576 m -5.71875,6.89456 c -1.52416,-0.0664 -3.23692,-1.12031 -3.47401,-2.72575 1.69471,0.21418 2.97583,0.98309 3.47401,2.72575 m 5.98598,-2.72575 c -0.24147,1.63501 -1.95969,2.60608 -3.47401,2.72575 0.29493,-1.03164 1.02569,-2.01018 2.03096,-2.4337 0.47161,-0.19868 0.9513,-0.20076 1.44305,-0.29205 z"
       id="path1-1-3-4"
       sodipodi:nodetypes="csssssssscsssscssssssssccssssssssssccssssssscssssssssccscccccccccccccccsc" />
    <path
       style="font-weight:300;font-size:33.3333px;font-family:Oswald;-inkscape-font-specification:'Oswald Light';text-align:center;white-space:pre;fill:#0c0e0d;stroke-width:1.5"
       d="m 514.74666,648.78102 h 9.69999 v 1.9 h -7.16666 v 10.16666 h 5.96666 v 1.86666 h -5.96666 V 675.781 h -2.53333 z m 15.53333,27.29998 q -1.73333,0 -2.8,-1.23334 -1.06666,-1.23333 -1.06666,-3.06666 0,-1.9 0.73333,-3.13333 0.76667,-1.23333 2.33333,-2.2 1.56667,-0.96666 4.7,-2.36666 v -1.36667 q 0,-1.8 -0.23333,-2.8 -0.2,-1 -0.73334,-1.43333 -0.5,-0.43333 -1.43333,-0.43333 -2.7,0 -2.7,3.3 v 0.66666 l -2.39999,-0.0333 q 0.0333,-2.96667 1.26666,-4.36666 1.23333,-1.4 3.96666,-1.4 2.53333,0 3.6,1.53333 1.1,1.53333 1.1,4.83333 v 9.36666 q 0,0.93333 0.0333,2.13333 0.0667,1.2 0.13334,1.7 h -2.16667 l -0.36667,-2.66667 q -0.43333,1.26667 -1.49999,2.13333 -1.03334,0.83334 -2.46667,0.83334 z m 0.76667,-2.06667 q 1,0 1.8,-0.66667 0.83333,-0.69999 1.33333,-1.63333 v -5.99999 q -2.26667,1.2 -3.3,1.86666 -1,0.66667 -1.53333,1.5 -0.5,0.8 -0.5,2.1 0,1.43333 0.6,2.13333 0.63333,0.7 1.6,0.7 z m 13.9333,2.06667 q -2.13334,0 -3.26667,-0.93334 -1.13333,-0.96666 -1.53333,-2.56666 -0.36667,-1.63333 -0.36667,-4.1 v -4.49999 q 0,-2.8 0.43334,-4.46667 0.46666,-1.66666 1.56666,-2.46666 1.13333,-0.83333 3.16667,-0.83333 2.83333,0 3.86666,1.56666 1.03333,1.53333 1.03333,4.6 v 0.93333 h -2.26666 v -0.93333 q 0,-1.7 -0.26667,-2.63333 -0.23333,-0.93333 -0.8,-1.3 -0.56667,-0.4 -1.56666,-0.4 -1.13334,0 -1.73334,0.53333 -0.56666,0.53333 -0.8,1.7 -0.2,1.13333 -0.2,3.3 v 5.39999 q 0,2 0.23334,3.13333 0.23333,1.13333 0.83333,1.63333 0.6,0.5 1.7,0.5 1.13333,0 1.66666,-0.46666 0.56667,-0.5 0.73334,-1.46667 0.2,-0.96666 0.2,-2.7 v -1.06666 h 2.26666 v 0.93333 q 0,2.16667 -0.4,3.6 -0.36666,1.4 -1.43333,2.2 -1.06667,0.8 -3.06666,0.8 z m 8.19999,-27.29998 h 2.43333 v 9.76666 q 2.16666,-2.33333 4.69999,-2.33333 1.43333,0 2.2,1.06666 0.76667,1.06667 0.76667,3.03333 V 675.781 h -2.46667 v -14.93332 q 0,-1.46667 -0.46666,-2.1 -0.43334,-0.63333 -1.36667,-0.63333 -0.8,0 -1.7,0.5 -0.86666,0.49999 -1.66666,1.33333 V 675.781 h -2.43333 z m 17.03334,27.29998 q -1.73333,0 -2.8,-1.23334 -1.06667,-1.23333 -1.06667,-3.06666 0,-1.9 0.73334,-3.13333 0.76666,-1.23333 2.33333,-2.2 1.56666,-0.96666 4.69999,-2.36666 v -1.36667 q 0,-1.8 -0.23333,-2.8 -0.2,-1 -0.73333,-1.43333 -0.5,-0.43333 -1.43333,-0.43333 -2.7,0 -2.7,3.3 v 0.66666 l -2.4,-0.0333 q 0.0333,-2.96667 1.26667,-4.36666 1.23333,-1.4 3.96666,-1.4 2.53333,0 3.6,1.53333 1.09999,1.53333 1.09999,4.83333 v 9.36666 q 0,0.93333 0.0333,2.13333 0.0667,1.2 0.13333,1.7 h -2.16666 l -0.36667,-2.66667 q -0.43333,1.26667 -1.5,2.13333 -1.03333,0.83334 -2.46666,0.83334 z m 0.76666,-2.06667 q 1,0 1.8,-0.66667 0.83333,-0.69999 1.33333,-1.63333 v -5.99999 q -2.26666,1.2 -3.29999,1.86666 -1,0.66667 -1.53334,1.5 -0.49999,0.8 -0.49999,2.1 0,1.43333 0.59999,2.13333 0.63334,0.7 1.6,0.7 z m 9.29997,-17.49998 h 2.46667 v 2.63333 q 0.86666,-1.43333 2.03333,-2.13333 1.2,-0.7 2.4,-0.7 0.23333,0 0.43333,0.0333 v 2.6 q -0.6,-0.2 -1.2,-0.2 -2.3,0 -3.66666,2.23333 V 675.781 h -2.46667 z m 8.93335,17.56665 6.56666,-15.69999 h -5.86666 v -1.86666 h 8.43333 v 1.46666 l -6.53333,15.93332 h 6.43333 v 1.86667 h -9.03333 z m 16.46666,1.93333 q -1.96666,0 -2.73333,-1.06667 -0.73333,-1.1 -0.73333,-3.16666 v -13.66665 h -2.36666 v -1.6 h 2.36666 v -5.96666 h 2.43333 v 5.96666 h 3.2 v 1.6 h -3.2 v 13.43332 q 0,1.46666 0.33333,2.03333 0.33334,0.53333 1.36667,0.53333 0.63333,0 1.4,-0.16667 v 1.86667 q -1.03333,0.2 -2.06667,0.2 z m 12.76669,-17.73332 h -2.46666 v -1.76666 h 2.46666 v -2 q 0,-1.63333 0.23334,-2.66666 0.26666,-1.03334 1.03333,-1.63334 0.76667,-0.6 2.26666,-0.6 1.06667,0 1.96667,0.23334 v 1.8 q -0.66667,-0.16667 -1.36667,-0.16667 -1.03333,0 -1.36666,0.63333 -0.3,0.6 -0.3,2.16667 v 2.23333 h 3.1 v 1.76666 h -3.1 V 675.781 h -2.46667 z m 10.56665,17.79999 q -1.46667,0 -2.23333,-1.06667 -0.76667,-1.06667 -0.76667,-3.03333 v -15.46665 h 2.46667 v 14.93332 q 0,1.46666 0.43333,2.09999 0.46666,0.6 1.4,0.6 0.83333,0 1.7,-0.5 0.89999,-0.53333 1.69999,-1.39999 v -15.73332 h 2.43333 V 675.781 h -2.43333 v -2.13334 q -0.96666,1.13334 -2.16666,1.8 -1.2,0.63334 -2.53333,0.63334 z m -1.8,-27.29998 h 2.5 v 2.96667 h -2.5 z m 5.49999,0 h 2.5 v 2.96667 h -2.5 z m 7.36669,7.73333 h 2.46666 v 2.63333 q 0.86667,-1.43333 2.03333,-2.13333 1.2,-0.7 2.4,-0.7 0.23334,0 0.43334,0.0333 v 2.6 q -0.6,-0.2 -1.2,-0.2 -2.3,0 -3.66667,2.23333 V 675.781 h -2.46666 z m 21.26669,-7.73333 h 2.66666 l 5.73333,26.99998 h -2.5 l -1.33333,-7.23333 h -6.43333 l -1.36666,7.23333 h -2.46667 z m 4.23333,17.93332 -2.86667,-14.56666 -2.86666,14.56666 z m 7.26664,-17.93332 h 2.43333 V 675.781 h -2.43333 z m 6.7333,0 h 2.43333 V 675.781 h -2.43333 z m 11.29999,33.3333 q -2.96667,0 -4.6,-0.86666 -1.6,-0.86667 -1.6,-2.63333 0,-1.33334 0.9,-2.43333 0.93334,-1.1 2.26667,-1.76667 -2.13333,-0.56667 -2.13333,-2.1 0,-0.93333 0.53333,-1.7 0.56666,-0.8 1.76666,-1.79999 -1.26666,-0.93334 -1.86666,-2.36667 -0.56667,-1.46666 -0.56667,-3.5 0,-2.93333 1.36667,-4.83332 1.36666,-1.9 4.03333,-1.9 2.93333,0 4.13333,2.4 0.3,-0.53334 1.03333,-1.16667 0.76667,-0.66667 1.56666,-1 l 0.5,-0.16667 0.66667,1.7 q -0.8,0.13334 -1.8,0.66667 -0.96666,0.53333 -1.36666,1 0.23333,0.63333 0.4,1.66666 0.2,1 0.2,1.7 0,3.1 -1.26667,4.93333 -1.26667,1.8 -4.03333,1.8 -0.5,0 -1.06666,-0.0667 -0.53334,-0.1 -0.9,-0.23333 -1.3,1.3 -1.3,2.2 0,0.46666 0.36666,0.73333 0.4,0.23333 1.23334,0.33333 l 3.06666,0.46667 q 2.4,0.36666 3.6,1.46666 1.23333,1.06667 1.23333,3 0,2.23333 -1.73333,3.33333 -1.7,1.13333 -4.63333,1.13333 z m 0.13333,-14.13332 q 1.9,0 2.53333,-1.4 0.63333,-1.39999 0.63333,-3.63333 0,-4.99999 -3.16666,-4.99999 -1.83333,0 -2.53333,1.46666 -0.7,1.46667 -0.7,3.53333 0,5.03333 3.23333,5.03333 z m -0.0333,12.16666 q 2.03333,0 3.16666,-0.6 1.16667,-0.6 1.16667,-1.86667 0,-1.06666 -0.76667,-1.66666 -0.73333,-0.6 -2.86666,-0.93333 l -2.46667,-0.33334 q -1.1,0.8 -1.8,1.53334 -0.66666,0.76666 -0.66666,1.73333 0,1.1 1.03333,1.6 1.03333,0.53333 3.2,0.53333 z m 13.96665,-4.06666 q -1.86667,0 -3,-0.73334 -1.13333,-0.73333 -1.66667,-2.36666 -0.53333,-1.63333 -0.53333,-4.43333 v -4.86666 q 0,-2.83333 0.53333,-4.43333 0.56667,-1.63333 1.7,-2.33333 1.16667,-0.7 3,-0.7 2,0 3.06666,0.86666 1.1,0.83334 1.5,2.53333 0.43334,1.7 0.43334,4.56667 v 1.73333 h -7.8 v 3.36666 q 0,2.76667 0.63334,3.86666 0.63333,1.1 2.13333,1.1 1.26666,0 1.93333,-0.8 0.7,-0.79999 0.7,-2.89999 v -1.33333 h 2.36666 v 1.06666 q 0,2.8 -1.16666,4.3 -1.16667,1.5 -3.83333,1.5 z m 2.63333,-11.56666 v -1.6 q 0,-1.73333 -0.2,-2.73333 -0.16667,-1 -0.73333,-1.56666 -0.56667,-0.56667 -1.7,-0.56667 -1.03334,0 -1.63333,0.46667 -0.6,0.43333 -0.86667,1.56666 -0.26667,1.1 -0.26667,3.13333 v 1.3 z m 5.70001,-7.99999 h 2.26666 v 1.96666 q 0.93334,-1.13333 2.1,-1.7 1.16667,-0.6 2.43333,-0.6 2.4,0 3.06667,2.5 0.96666,-1.23333 2.16666,-1.86666 1.23333,-0.63334 2.56667,-0.63334 1.43333,0 2.33333,1.03334 0.93333,1.03333 0.93333,3.36666 V 675.781 h -2.26666 v -15.13332 q 0,-1.56667 -0.5,-2.16667 -0.5,-0.63333 -1.43334,-0.63333 -0.86666,0 -1.83333,0.53333 -0.96666,0.53333 -1.8,1.46667 0.0667,0.46666 0.0667,0.73333 V 675.781 h -2.3 v -15.13332 q 0,-1.6 -0.5,-2.2 -0.5,-0.6 -1.43333,-0.6 -0.86666,0 -1.8,0.53333 -0.93333,0.53333 -1.8,1.43333 V 675.781 h -2.26666 z m 26.29994,19.56665 q -1.86666,0 -2.99999,-0.73334 -1.13334,-0.73333 -1.66667,-2.36666 -0.53333,-1.63333 -0.53333,-4.43333 v -4.86666 q 0,-2.83333 0.53333,-4.43333 0.56667,-1.63333 1.7,-2.33333 1.16666,-0.7 3,-0.7 1.99999,0 3.06666,0.86666 1.1,0.83334 1.5,2.53333 0.43333,1.7 0.43333,4.56667 v 1.73333 h -7.79999 v 3.36666 q 0,2.76667 0.63333,3.86666 0.63333,1.1 2.13333,1.1 1.26667,0 1.93333,-0.8 0.7,-0.79999 0.7,-2.89999 v -1.33333 h 2.36667 v 1.06666 q 0,2.8 -1.16667,4.3 -1.16666,1.5 -3.83333,1.5 z m 2.63333,-11.56666 v -1.6 q 0,-1.73333 -0.2,-2.73333 -0.16666,-1 -0.73333,-1.56666 -0.56667,-0.56667 -1.7,-0.56667 -1.03333,0 -1.63333,0.46667 -0.6,0.43333 -0.86667,1.56666 -0.26666,1.1 -0.26666,3.13333 v 1.3 z m 5.96668,-13.96665 h 2.43333 v 3.29999 h -2.43333 z m 0,5.96666 h 2.43333 V 675.781 h -2.43333 z m 6.53334,0 h 2.43333 v 2 q 0.96667,-1.06667 2.13333,-1.66667 1.2,-0.63333 2.5,-0.63333 1.43333,0 2.2,1.06666 0.76666,1.06667 0.76666,3.03333 V 675.781 h -2.43333 v -14.93332 q 0,-1.46667 -0.46666,-2.1 -0.43334,-0.63333 -1.36667,-0.63333 -0.8,0 -1.66667,0.5 -0.86666,0.46666 -1.66666,1.29999 V 675.781 h -2.43333 z m 13.63333,0 h 2.26666 v 1.96666 q 0.93334,-1.13333 2.1,-1.7 1.16667,-0.6 2.43333,-0.6 2.4,0 3.06667,2.5 0.96666,-1.23333 2.16666,-1.86666 1.23333,-0.63334 2.56667,-0.63334 1.43333,0 2.33333,1.03334 0.93333,1.03333 0.93333,3.36666 V 675.781 h -2.26666 v -15.13332 q 0,-1.56667 -0.5,-2.16667 -0.5,-0.63333 -1.43334,-0.63333 -0.86666,0 -1.83333,0.53333 -0.96666,0.53333 -1.8,1.46667 0.0667,0.46666 0.0667,0.73333 V 675.781 h -2.3 v -15.13332 q 0,-1.6 -0.5,-2.2 -0.5,-0.6 -1.43333,-0.6 -0.86666,0 -1.8,0.53333 -0.93333,0.53333 -1.8,1.43333 V 675.781 h -2.26666 z m 26.29994,19.56665 q -1.86666,0 -2.99999,-0.73334 -1.13334,-0.73333 -1.66667,-2.36666 -0.53333,-1.63333 -0.53333,-4.43333 v -4.86666 q 0,-2.83333 0.53333,-4.43333 0.56667,-1.63333 1.7,-2.33333 1.16666,-0.7 3,-0.7 1.99999,0 3.06666,0.86666 1.1,0.83334 1.5,2.53333 0.43333,1.7 0.43333,4.56667 v 1.73333 h -7.79999 v 3.36666 q 0,2.76667 0.63333,3.86666 0.63333,1.1 2.13333,1.1 1.26667,0 1.93333,-0.8 0.7,-0.79999 0.7,-2.89999 v -1.33333 h 2.36667 v 1.06666 q 0,2.8 -1.16667,4.3 -1.16666,1.5 -3.83333,1.5 z m 2.63333,-11.56666 v -1.6 q 0,-1.73333 -0.2,-2.73333 -0.16666,-1 -0.73333,-1.56666 -0.56667,-0.56667 -1.7,-0.56667 -1.03333,0 -1.63333,0.46667 -0.6,0.43333 -0.86667,1.56666 -0.26666,1.1 -0.26666,3.13333 v 1.3 z m 9.96669,11.56666 q -2.46666,0 -3.56666,-1.86667 -1.06667,-1.86666 -1.06667,-6.19999 v -3.56667 q 0,-4.09999 0.96667,-6.16666 0.96667,-2.06666 3.56666,-2.06666 1.86667,0 3.4,1.66666 v -9.09999 h 2.43333 V 675.781 h -2.43333 v -1.36667 q -1.53333,1.66667 -3.3,1.66667 z m 0.5,-1.93334 q 1.4,0 2.8,-1.26666 v -13.39999 q -1.53333,-1.36666 -2.86666,-1.36666 -1.53334,0 -2.1,1.29999 -0.53333,1.3 -0.53333,4.23333 v 4.56667 q 0,3.13333 0.53333,4.53333 0.56666,1.39999 2.16666,1.39999 z m 9.26664,-23.59997 h 2.43333 v 3.29999 h -2.43333 z m 0,5.96666 h 2.43333 V 675.781 h -2.43333 z m 5.73335,17.56665 6.56666,-15.69999 h -5.86666 v -1.86666 h 8.43333 v 1.46666 l -6.53333,15.93332 h 6.43333 v 1.86667 h -9.03333 z m 12.16667,-23.53331 h 2.43333 v 3.29999 h -2.43333 z m 0,5.96666 h 2.43333 V 675.781 h -2.43333 z m 6.53333,0 h 2.43333 v 2 q 0.96666,-1.06667 2.13333,-1.66667 1.2,-0.63333 2.49999,-0.63333 1.43334,0 2.2,1.06666 0.76667,1.06667 0.76667,3.03333 V 675.781 h -2.43333 v -14.93332 q 0,-1.46667 -0.46667,-2.1 -0.43333,-0.63333 -1.36666,-0.63333 -0.8,0 -1.66667,0.5 -0.86666,0.46666 -1.66666,1.29999 V 675.781 h -2.43333 z m 23.26668,19.56665 q -1.46667,0 -2.23334,-1.06667 -0.76666,-1.06667 -0.76666,-3.03333 v -15.46665 h 2.46666 v 14.93332 q 0,1.46666 0.43334,2.09999 0.46666,0.6 1.39999,0.6 0.83334,0 1.7,-0.5 0.9,-0.53333 1.7,-1.39999 v -15.73332 h 2.43333 V 675.781 h -2.43333 v -2.13334 q -0.96666,1.13334 -2.16666,1.8 -1.2,0.63334 -2.53333,0.63334 z m 10.9,-19.56665 h 2.43333 v 2 q 0.96667,-1.06667 2.13333,-1.66667 1.2,-0.63333 2.5,-0.63333 1.43333,0 2.2,1.06666 0.76667,1.06667 0.76667,3.03333 V 675.781 h -2.43334 v -14.93332 q 0,-1.46667 -0.46666,-2.1 -0.43333,-0.63333 -1.36667,-0.63333 -0.8,0 -1.66666,0.5 -0.86667,0.46666 -1.66667,1.29999 V 675.781 h -2.43333 z m 17.9,19.56665 q -2.46667,0 -3.56667,-1.86667 -1.06666,-1.86666 -1.06666,-6.19999 v -3.56667 q 0,-4.09999 0.96666,-6.16666 0.96667,-2.06666 3.56667,-2.06666 1.86666,0 3.39999,1.66666 v -9.09999 h 2.43333 V 675.781 h -2.43333 v -1.36667 q -1.53333,1.66667 -3.29999,1.66667 z m 0.5,-1.93334 q 1.39999,0 2.79999,-1.26666 v -13.39999 q -1.53333,-1.36666 -2.86666,-1.36666 -1.53333,0 -2.1,1.29999 -0.53333,1.3 -0.53333,4.23333 v 4.56667 q 0,3.13333 0.53333,4.53333 0.56667,1.39999 2.16667,1.39999 z m 22.90001,1.96667 q -3.9,0 -5.4,-1.96667 -1.5,-1.99999 -1.5,-5.73332 v -19.63332 h 2.46667 V 668.481 q 0,2.66667 0.93333,4.13333 0.96667,1.46667 3.5,1.46667 2.43333,0 3.43333,-1.46667 1,-1.5 1,-4.13333 v -19.69998 h 2.43333 v 19.63332 q 0,3.66666 -1.56667,5.69999 -1.53333,2 -5.29999,2 z m 10.8,-19.59998 h 2.43333 v 2 q 0.96666,-1.06667 2.13333,-1.66667 1.2,-0.63333 2.5,-0.63333 1.43333,0 2.2,1.06666 0.76666,1.06667 0.76666,3.03333 V 675.781 h -2.43333 v -14.93332 q 0,-1.46667 -0.46667,-2.1 -0.43333,-0.63333 -1.36666,-0.63333 -0.8,0 -1.66667,0.5 -0.86666,0.46666 -1.66666,1.29999 V 675.781 h -2.43333 z m 14.83333,1.76666 h -2.46667 v -1.76666 h 2.46667 v -2 q 0,-1.63333 0.23333,-2.66666 0.26667,-1.03334 1.03333,-1.63334 0.76667,-0.6 2.26667,-0.6 1.06666,0 1.96666,0.23334 v 1.8 q -0.66666,-0.16667 -1.36666,-0.16667 -1.03333,0 -1.36667,0.63333 -0.3,0.6 -0.3,2.16667 v 2.23333 h 3.1 v 1.76666 h -3.1 V 675.781 h -2.46666 z m 11.06665,17.79999 q -1.73333,0 -2.8,-1.23334 -1.06666,-1.23333 -1.06666,-3.06666 0,-1.9 0.73333,-3.13333 0.76666,-1.23333 2.33333,-2.2 1.56666,-0.96666 4.69999,-2.36666 v -1.36667 q 0,-1.8 -0.23333,-2.8 -0.2,-1 -0.73333,-1.43333 -0.5,-0.43333 -1.43333,-0.43333 -2.7,0 -2.7,3.3 v 0.66666 l -2.4,-0.0333 q 0.0333,-2.96667 1.26667,-4.36666 1.23333,-1.4 3.96666,-1.4 2.53333,0 3.6,1.53333 1.1,1.53333 1.1,4.83333 v 9.36666 q 0,0.93333 0.0333,2.13333 0.0667,1.2 0.13333,1.7 h -2.16666 l -0.36667,-2.66667 q -0.43333,1.26667 -1.5,2.13333 -1.03333,0.83334 -2.46666,0.83334 z m 0.76666,-2.06667 q 1,0 1.8,-0.66667 0.83334,-0.69999 1.33333,-1.63333 v -5.99999 q -2.26666,1.2 -3.29999,1.86666 -1,0.66667 -1.53333,1.5 -0.5,0.8 -0.5,2.1 0,1.43333 0.6,2.13333 0.63333,0.7 1.59999,0.7 z m 9.46665,-25.23331 h 2.43333 V 675.781 h -2.43333 z m 6.73331,0 h 2.43333 V 675.781 h -2.43333 z m 11.2,27.29998 q -2.13334,0 -3.26667,-0.93334 -1.13333,-0.96666 -1.53333,-2.56666 -0.36667,-1.63333 -0.36667,-4.1 v -4.49999 q 0,-2.8 0.43334,-4.46667 0.46666,-1.66666 1.56666,-2.46666 1.13333,-0.83333 3.16667,-0.83333 2.83333,0 3.86666,1.56666 1.03333,1.53333 1.03333,4.6 v 0.93333 h -2.26666 v -0.93333 q 0,-1.7 -0.26667,-2.63333 -0.23333,-0.93333 -0.8,-1.3 -0.56667,-0.4 -1.56666,-0.4 -1.13334,0 -1.73334,0.53333 -0.56666,0.53333 -0.8,1.7 -0.2,1.13333 -0.2,3.3 v 5.39999 q 0,2 0.23334,3.13333 0.23333,1.13333 0.83333,1.63333 0.6,0.5 1.7,0.5 1.13333,0 1.66666,-0.46666 0.56667,-0.5 0.73334,-1.46667 0.2,-0.96666 0.2,-2.7 v -1.06666 h 2.26666 v 0.93333 q 0,2.16667 -0.4,3.6 -0.36667,1.4 -1.43333,2.2 -1.06667,0.8 -3.06666,0.8 z m 8.19998,-27.29998 h 2.43333 v 9.76666 q 2.16666,-2.33333 4.69999,-2.33333 1.43334,0 2.2,1.06666 0.76665,1.06667 0.76665,3.03333 V 675.781 h -2.46665 v -14.93332 q 0,-1.46667 -0.46666,-2.1 -0.43334,-0.63333 -1.36667,-0.63333 -0.8,0 -1.7,0.5 -0.86666,0.49999 -1.66666,1.33333 V 675.781 h -2.43333 z m 13.96667,1.76667 h 2.4333 v 3.29999 h -2.4333 z m 0,5.96666 h 2.4333 V 675.781 h -2.4333 z m 6.7,0 h 2.4667 v 2.63333 q 0.8666,-1.43333 2.0333,-2.13333 1.2,-0.7 2.4,-0.7 0.2333,0 0.4333,0.0333 v 2.6 q -0.6,-0.2 -1.2,-0.2 -2.3,0 -3.6666,2.23333 V 675.781 h -2.4667 z m 12.5667,19.56665 q -1.4667,0 -2.2334,-1.06667 -0.7666,-1.06667 -0.7666,-3.03333 v -15.46665 h 2.4666 v 14.93332 q 0,1.46666 0.4334,2.09999 0.4666,0.6 1.4,0.6 0.8333,0 1.7,-0.5 0.9,-0.53333 1.7,-1.39999 v -15.73332 h 2.4333 V 675.781 h -2.4333 v -2.13334 q -0.9667,1.13334 -2.1667,1.8 -1.2,0.63334 -2.5333,0.63334 z m 11.0667,-19.56665 h 2.4666 v 2.63333 q 0.8667,-1.43333 2.0334,-2.13333 1.2,-0.7 2.4,-0.7 0.2333,0 0.4333,0.0333 v 2.6 q -0.6,-0.2 -1.2,-0.2 -2.3,0 -3.6667,2.23333 V 675.781 h -2.4666 z m 14.5333,25.59997 q -2.9667,0 -4.6,-0.86666 -1.6,-0.86667 -1.6,-2.63333 0,-1.33334 0.9,-2.43333 0.9333,-1.1 2.2667,-1.76667 -2.1334,-0.56667 -2.1334,-2.1 0,-0.93333 0.5334,-1.7 0.5666,-0.8 1.7666,-1.79999 -1.2666,-0.93334 -1.8666,-2.36667 -0.5667,-1.46666 -0.5667,-3.5 0,-2.93333 1.3667,-4.83332 1.3666,-1.9 4.0333,-1.9 2.9333,0 4.1333,2.4 0.3,-0.53334 1.0334,-1.16667 0.7666,-0.66667 1.5666,-1 l 0.5,-0.16667 0.6667,1.7 q -0.8,0.13334 -1.8,0.66667 -0.9667,0.53333 -1.3667,1 0.2334,0.63333 0.4,1.66666 0.2,1 0.2,1.7 0,3.1 -1.2666,4.93333 -1.2667,1.8 -4.0334,1.8 -0.5,0 -1.0666,-0.0667 -0.5334,-0.1 -0.9,-0.23333 -1.3,1.3 -1.3,2.2 0,0.46666 0.3666,0.73333 0.4,0.23333 1.2334,0.33333 l 3.0666,0.46667 q 2.4,0.36666 3.6,1.46666 1.2334,1.06667 1.2334,3 0,2.23333 -1.7334,3.33333 -1.7,1.13333 -4.6333,1.13333 z m 0.1333,-14.13332 q 1.9,0 2.5334,-1.4 0.6333,-1.39999 0.6333,-3.63333 0,-4.99999 -3.1667,-4.99999 -1.8333,0 -2.5333,1.46666 -0.7,1.46667 -0.7,3.53333 0,5.03333 3.2333,5.03333 z m -0.033,12.16666 q 2.0333,0 3.1667,-0.6 1.1666,-0.6 1.1666,-1.86667 0,-1.06666 -0.7666,-1.66666 -0.7334,-0.6 -2.8667,-0.93333 l -2.4667,-0.33334 q -1.1,0.8 -1.8,1.53334 -0.6666,0.76666 -0.6666,1.73333 0,1.1 1.0333,1.6 1.0333,0.53333 3.2,0.53333 z m 9.6333,-29.59997 h 2.4333 v 3.29999 h -2.4333 z m 0,5.96666 h 2.4333 V 675.781 h -2.4333 z m 11.3667,19.56665 q -1.8666,0 -3,-0.73334 -1.1333,-0.73333 -1.6666,-2.36666 -0.5334,-1.63333 -0.5334,-4.43333 v -4.86666 q 0,-2.83333 0.5334,-4.43333 0.5666,-1.63333 1.7,-2.33333 1.1666,-0.7 2.9999,-0.7 2,0 3.0667,0.86666 1.1,0.83334 1.5,2.53333 0.4333,1.7 0.4333,4.56667 v 1.73333 h -7.7999 v 3.36666 q 0,2.76667 0.6333,3.86666 0.6333,1.1 2.1333,1.1 1.2667,0 1.9333,-0.8 0.7,-0.79999 0.7,-2.89999 v -1.33333 h 2.3667 v 1.06666 q 0,2.8 -1.1667,4.3 -1.1666,1.5 -3.8333,1.5 z m 2.6333,-11.56666 v -1.6 q 0,-1.73333 -0.2,-2.73333 -0.1666,-1 -0.7333,-1.56666 -0.5667,-0.56667 -1.7,-0.56667 -1.0333,0 -1.6333,0.46667 -0.6,0.43333 -0.8667,1.56666 -0.2666,1.1 -0.2666,3.13333 v 1.3 z"
       id="text14"
       transform="matrix(0.24219039,0,0,0.22133127,83.814313,99.226492)"
       aria-label="Facharzt für Allgemeinmedizin und Unfallchirurgie" />
  </g>
</svg>
